# xmcd
#
# Track frame offsets:
#	150
#	11955
#	24080
#	37183
#	49250
#	60154
#	71529
#	83465
#	96773
#	108747
#	120857
#	131484
#	145798
#	158185
#	173545
#	183509
#	198319
#	211398
#	222886
#	235898
#	247889
#	262152
#	273173
#
# Disc length: 3822
#
# Revision: 1
# Processed by: cddbd v1.5.1PL0 Copyright (c) Steve Scherf et al.
# Submitted via: audiograbber 1.80.04
# Normalized: r0:DSETVAR1
#
DISCID=3a0eec17
DTITLE=Various Artist - The Best Of Blues 2
DYEAR=1900
DGENRE=Blues
TTITLE0=Elta James - I'd rather go blind
TTITLE1=John Lee Hooker - In the mood
TTITLE2=Muddy Waters - Mannish boy
TTITLE3=Memphis Slim - Mother Earth
TTITLE4=Lowell Fulson - Blue shadows
TTITLE5=Sonny Boy Williamson - Your funeral my trail
TTITLE6=Big Bill Broonzby and Washboard Sam - Diggin' my potatoes
TTITLE7=Little Milton - Who cheating who
TTITLE8=Howlin' Wolf - How many more years
TTITLE9=Little Walter - My baby
TTITLE10=Elmore James - Madison blues
TTITLE11=Buddy Guy - My time after a white
TTITLE12=Elta James and Fugua - If I can't have you
TTITLE13=Muddy Waters - Honey bee
TTITLE14=Otis Rush - I can't stop baby
TTITLE15=J.B.Lenoir - I've been down for so long
TTITLE16=John Lee Hooker - Down at the landing
TTITLE17=Sonny Boy Williamson - Don't start me to talkin'
TTITLE18=Howlin' Wolf - Moonin' at midnight
TTITLE19=Little Milton - We're gonna make it
TTITLE20=Buddy Guy - Broken hearted blues
TTITLE21=Big Bill Broonzby and Washboard Sam - Jacqueline
TTITLE22=Lowell Fulson - Loving you
EXTD=
EXTT0=
EXTT1=
EXTT2=
EXTT3=
EXTT4=
EXTT5=
EXTT6=
EXTT7=
EXTT8=
EXTT9=
EXTT10=
EXTT11=
EXTT12=
EXTT13=
EXTT14=
EXTT15=
EXTT16=
EXTT17=
EXTT18=
EXTT19=
EXTT20=
EXTT21=
EXTT22=
PLAYORDER=
